<?xml version="1.0" standalone="no"?>
<!DOCTYPE svg PUBLIC "-//W3C//DTD SVG 20010904//EN"
 "http://www.w3.org/TR/2001/REC-SVG-20010904/DTD/svg10.dtd">
<svg version="1.0" xmlns="http://www.w3.org/2000/svg"
 width="260.000000pt" height="260.000000pt" viewBox="0 0 260.000000 260.000000"
 preserveAspectRatio="xMidYMid meet">
<metadata>
Created by potrace 1.11, written by Peter Selinger 2001-2013
</metadata>
<g transform="translate(0.000000,260.000000) scale(0.100000,-0.100000)"
fill="#000000" stroke="none">
<path d="M490 2111 c0 -142 3 -191 13 -194 10 -4 10 -6 0 -6 -15 -1 -17 -47
-3 -56 6 -3 10 -13 10 -21 0 -8 -4 -13 -10 -9 -6 3 -9 -38 -9 -110 0 -72 3
-113 9 -110 6 4 10 -1 10 -9 0 -8 -4 -18 -10 -21 -6 -4 -10 -242 -10 -650 l0
-645 120 0 121 0 -3 865 c-2 476 -2 865 -1 865 1 0 14 -24 28 -53 15 -29 262
-417 549 -862 l523 -810 146 -3 147 -3 0 1011 0 1010 -120 0 -120 0 1 -742 c0
-409 4 -795 8 -858 4 -63 6 -116 5 -118 -1 -1 -17 23 -36 55 -19 32 -265 419
-547 861 l-513 802 -154 0 -154 0 0 -189z m33 -564 c-4 -7 0 -8 11 -4 23 9 43
-3 25 -14 -23 -14 -35 -10 -47 16 -9 20 -9 23 3 18 8 -3 12 -10 8 -16z m77
-271 c0 -2 -7 -9 -15 -16 -12 -10 -15 -10 -15 4 0 9 7 16 15 16 8 0 15 -2 15
-4z m20 -46 c0 -4 -8 -7 -17 -5 -10 2 -20 4 -23 4 -3 1 2 5 10 10 15 10 30 6
30 -9z"/>
</g>
</svg>
